# xmcd
#
# Track frame offsets:
#	150
#	15750
#	33172
#	53964
#	65965
#	89747
#	104879
#	121990
#	138894
#	159092
#	179189
#
# Disc length: 2587 seconds
#
# Revision: 1
# Processed by: cddbd v1.5.2PL0 Copyright (c) Steve Scherf et al.
# Submitted via: audiograbber 1.83.01
#
DISCID=980a190b
DTITLE=Kris Dollimore - Now Was The Time
DYEAR=1900
DGENRE=
TTITLE0=Mercy Man
TTITLE1=Preachin The Blues
TTITLE2=Asylum
TTITLE3=Sylvie
TTITLE4=No No No
TTITLE5=Soul Of A Man
TTITLE6=Testify
TTITLE7=Saudade
TTITLE8=No Wonder She Left Me
TTITLE9=Millionaire, Popstar, Boyfriend
TTITLE10=Tears In Tijuana
EXTD=
EXTT0=
EXTT1=
EXTT2=
EXTT3=
EXTT4=
EXTT5=
EXTT6=
EXTT7=
EXTT8=
EXTT9=
EXTT10=
PLAYORDER=
